<?xml version="1.0" encoding="UTF-8" standalone="no"?>
<!DOCTYPE svg PUBLIC "-//W3C//DTD SVG 1.1//EN"
 "http://www.w3.org/Graphics/SVG/1.1/DTD/svg11.dtd">
<!-- Generated by graphviz version 2.43.0 (0)
 -->
<!-- Title: %3 Pages: 1 -->
<svg width="309pt" height="260pt"
 viewBox="0.00 0.00 308.55 260.00" xmlns="http://www.w3.org/2000/svg" xmlns:xlink="http://www.w3.org/1999/xlink">
<g id="graph0" class="graph" transform="scale(1 1) rotate(0) translate(4 256)">
<title>%3</title>
<polygon fill="white" stroke="transparent" points="-4,4 -4,-256 304.55,-256 304.55,4 -4,4"/>
<!-- App -->
<g id="node1" class="node">
<title>App</title>
<ellipse fill="none" stroke="black" cx="200.04" cy="-234" rx="28.7" ry="18"/>
<text text-anchor="middle" x="200.04" y="-230.3" font-family="Times,serif" font-size="14.00">App</text>
</g>
<!-- darkSoulsStore -->
<g id="node2" class="node">
<title>darkSoulsStore</title>
<ellipse fill="none" stroke="black" cx="200.04" cy="-162" rx="82.59" ry="18"/>
<text text-anchor="middle" x="200.04" y="-158.3" font-family="Times,serif" font-size="14.00">darkSoulsStore</text>
</g>
<!-- App&#45;&gt;darkSoulsStore -->
<g id="edge1" class="edge">
<title>App&#45;&gt;darkSoulsStore</title>
<path fill="none" stroke="black" d="M200.04,-215.7C200.04,-207.98 200.04,-198.71 200.04,-190.11"/>
<polygon fill="black" stroke="black" points="203.54,-190.1 200.04,-180.1 196.54,-190.1 203.54,-190.1"/>
</g>
<!-- bloodBorneStore -->
<g id="node3" class="node">
<title>bloodBorneStore</title>
<ellipse fill="none" stroke="black" cx="89.04" cy="-90" rx="89.08" ry="18"/>
<text text-anchor="middle" x="89.04" y="-86.3" font-family="Times,serif" font-size="14.00">bloodBorneStore</text>
</g>
<!-- App&#45;&gt;bloodBorneStore -->
<g id="edge2" class="edge">
<title>App&#45;&gt;bloodBorneStore</title>
<path fill="none" stroke="black" d="M174.99,-225.08C153.87,-217.09 124.53,-202.65 108.04,-180 95,-162.08 90.55,-137.09 89.18,-118.14"/>
<polygon fill="black" stroke="black" points="92.68,-117.88 88.7,-108.06 85.68,-118.21 92.68,-117.88"/>
</g>
<!-- eldenRingStore -->
<g id="node4" class="node">
<title>eldenRingStore</title>
<ellipse fill="none" stroke="black" cx="215.04" cy="-18" rx="83.39" ry="18"/>
<text text-anchor="middle" x="215.04" y="-14.3" font-family="Times,serif" font-size="14.00">eldenRingStore</text>
</g>
<!-- App&#45;&gt;eldenRingStore -->
<g id="edge3" class="edge">
<title>App&#45;&gt;eldenRingStore</title>
<path fill="none" stroke="black" d="M225.88,-226.02C247.82,-218.58 277.93,-204.42 292.04,-180 319.17,-133.06 273.24,-75.08 241.45,-43.07"/>
<polygon fill="black" stroke="black" points="243.72,-40.39 234.13,-35.89 238.82,-45.39 243.72,-40.39"/>
</g>
<!-- darkSoulsStore&#45;&gt;bloodBorneStore -->
<g id="edge6" class="edge">
<title>darkSoulsStore&#45;&gt;bloodBorneStore</title>
<path fill="none" stroke="black" d="M174.3,-144.76C159.28,-135.29 140.12,-123.21 123.78,-112.91"/>
<polygon fill="black" stroke="black" points="125.36,-109.76 115.03,-107.39 121.62,-115.68 125.36,-109.76"/>
</g>
<!-- darkSoulsStore&#45;&gt;eldenRingStore -->
<g id="edge7" class="edge">
<title>darkSoulsStore&#45;&gt;eldenRingStore</title>
<path fill="none" stroke="black" d="M197.27,-143.87C197.27,-119.56 201.71,-74.82 206.76,-46.01"/>
<polygon fill="black" stroke="black" points="210.19,-46.67 208.64,-36.19 203.32,-45.35 210.19,-46.67"/>
</g>
<!-- bloodBorneStore&#45;&gt;eldenRingStore -->
<g id="edge5" class="edge">
<title>bloodBorneStore&#45;&gt;eldenRingStore</title>
<path fill="none" stroke="black" d="M117.95,-72.94C135.64,-63.11 158.45,-50.44 177.53,-39.84"/>
<polygon fill="black" stroke="black" points="179.23,-42.9 186.27,-34.98 175.83,-36.78 179.23,-42.9"/>
</g>
<!-- eldenRingStore&#45;&gt;darkSoulsStore -->
<g id="edge4" class="edge">
<title>eldenRingStore&#45;&gt;darkSoulsStore</title>
<path fill="none" stroke="black" d="M217.82,-36.19C217.81,-60.42 213.4,-104.89 208.38,-133.68"/>
<polygon fill="black" stroke="black" points="204.87,-133.39 206.44,-143.87 211.75,-134.71 204.87,-133.39"/>
</g>
</g>
</svg>
