<?xml version="1.0" encoding="UTF-8" standalone="no"?>
<!DOCTYPE svg PUBLIC "-//W3C//DTD SVG 1.1//EN"
 "http://www.w3.org/Graphics/SVG/1.1/DTD/svg11.dtd">
<!-- Generated by graphviz version 12.1.2 (20240928.0832)
 -->
<!-- Pages: 1 -->
<svg width="334pt" height="188pt"
 viewBox="0.00 0.00 333.88 188.00" xmlns="http://www.w3.org/2000/svg" xmlns:xlink="http://www.w3.org/1999/xlink">
<g id="graph0" class="graph" transform="scale(1 1) rotate(0) translate(4 184)">
<polygon fill="white" stroke="none" points="-4,4 -4,-184 329.88,-184 329.88,4 -4,4"/>
<!-- liesOfPStore -->
<g id="node1" class="node">
<title>liesOfPStore</title>
<ellipse fill="none" stroke="black" cx="58" cy="-162" rx="58" ry="18"/>
<text text-anchor="middle" x="58" y="-156.95" font-family="Times New Roman,serif" font-size="14.00">liesOfPStore</text>
</g>
<!-- eldenRingStore -->
<g id="node2" class="node">
<title>eldenRingStore</title>
<ellipse fill="none" stroke="black" cx="201" cy="-18" rx="68.24" ry="18"/>
<text text-anchor="middle" x="201" y="-12.95" font-family="Times New Roman,serif" font-size="14.00">eldenRingStore</text>
</g>
<!-- darkSoulsStore -->
<g id="node3" class="node">
<title>darkSoulsStore</title>
<ellipse fill="none" stroke="black" cx="201" cy="-162" rx="67.22" ry="18"/>
<text text-anchor="middle" x="201" y="-156.95" font-family="Times New Roman,serif" font-size="14.00">darkSoulsStore</text>
</g>
<!-- darkSoulsStore&#45;&gt;eldenRingStore -->
<g id="edge1" class="edge">
<title>darkSoulsStore&#45;&gt;eldenRingStore</title>
<path fill="none" stroke="black" d="M187.44,-143.97C180.45,-134.09 172.64,-121.05 169,-108 164.71,-92.59 164.71,-87.41 169,-72 171.56,-62.83 176.18,-53.65 181.13,-45.58"/>
<polygon fill="black" stroke="black" points="184.01,-47.56 186.61,-37.29 178.17,-43.7 184.01,-47.56"/>
</g>
<!-- bloodBorneStore -->
<g id="node4" class="node">
<title>bloodBorneStore</title>
<ellipse fill="none" stroke="black" cx="252" cy="-90" rx="73.87" ry="18"/>
<text text-anchor="middle" x="252" y="-84.95" font-family="Times New Roman,serif" font-size="14.00">bloodBorneStore</text>
</g>
<!-- darkSoulsStore&#45;&gt;bloodBorneStore -->
<g id="edge2" class="edge">
<title>darkSoulsStore&#45;&gt;bloodBorneStore</title>
<path fill="none" stroke="black" d="M213.35,-144.05C219.3,-135.89 226.57,-125.91 233.19,-116.82"/>
<polygon fill="black" stroke="black" points="235.82,-119.16 238.88,-109.01 230.16,-115.03 235.82,-119.16"/>
</g>
<!-- bloodBorneStore&#45;&gt;eldenRingStore -->
<g id="edge3" class="edge">
<title>bloodBorneStore&#45;&gt;eldenRingStore</title>
<path fill="none" stroke="black" d="M239.66,-72.05C233.71,-63.89 226.44,-53.91 219.82,-44.82"/>
<polygon fill="black" stroke="black" points="222.85,-43.03 214.13,-37.01 217.19,-47.16 222.85,-43.03"/>
</g>
</g>
</svg>
