<?xml version="1.0" encoding="UTF-8" standalone="no"?>
<!DOCTYPE svg PUBLIC "-//W3C//DTD SVG 1.1//EN"
 "http://www.w3.org/Graphics/SVG/1.1/DTD/svg11.dtd">
<!-- Generated by graphviz version 2.43.0 (0)
 -->
<!-- Title: %3 Pages: 1 -->
<svg width="494pt" height="476pt"
 viewBox="0.00 0.00 494.23 476.00" xmlns="http://www.w3.org/2000/svg" xmlns:xlink="http://www.w3.org/1999/xlink">
<g id="graph0" class="graph" transform="scale(1 1) rotate(0) translate(4 472)">
<title>%3</title>
<polygon fill="white" stroke="transparent" points="-4,4 -4,-472 490.23,-472 490.23,4 -4,4"/>
<!-- useAdminStore -->
<g id="node1" class="node">
<title>useAdminStore</title>
<ellipse fill="none" stroke="red" cx="217.14" cy="-450" rx="81.79" ry="18"/>
<text text-anchor="middle" x="217.14" y="-446.3" font-family="Times,serif" font-size="14.00">useAdminStore</text>
</g>
<!-- useAuthStore -->
<g id="node2" class="node">
<title>useAuthStore</title>
<ellipse fill="none" stroke="red" cx="166.14" cy="-378" rx="74.19" ry="18"/>
<text text-anchor="middle" x="166.14" y="-374.3" font-family="Times,serif" font-size="14.00">useAuthStore</text>
</g>
<!-- useAdminStore&#45;&gt;useAuthStore -->
<g id="edge1" class="edge">
<title>useAdminStore&#45;&gt;useAuthStore</title>
<path fill="none" stroke="red" d="M204.79,-432.05C198.66,-423.63 191.12,-413.28 184.33,-403.97"/>
<polygon fill="red" stroke="red" points="187.09,-401.81 178.37,-395.79 181.43,-405.93 187.09,-401.81"/>
</g>
<!-- useLogsStore -->
<g id="node7" class="node">
<title>useLogsStore</title>
<ellipse fill="none" stroke="black" cx="412.14" cy="-306" rx="74.19" ry="18"/>
<text text-anchor="middle" x="412.14" y="-302.3" font-family="Times,serif" font-size="14.00">useLogsStore</text>
</g>
<!-- useAdminStore&#45;&gt;useLogsStore -->
<g id="edge14" class="edge">
<title>useAdminStore&#45;&gt;useLogsStore</title>
<path fill="none" stroke="black" d="M239.89,-432.43C274.92,-406.93 342.11,-358 381.42,-329.37"/>
<polygon fill="black" stroke="black" points="383.81,-331.96 389.83,-323.24 379.69,-326.3 383.81,-331.96"/>
</g>
<!-- useUserStore -->
<g id="node3" class="node">
<title>useUserStore</title>
<ellipse fill="none" stroke="red" cx="232.14" cy="-306" rx="74.99" ry="18"/>
<text text-anchor="middle" x="232.14" y="-302.3" font-family="Times,serif" font-size="14.00">useUserStore</text>
</g>
<!-- useAuthStore&#45;&gt;useUserStore -->
<g id="edge2" class="edge">
<title>useAuthStore&#45;&gt;useUserStore</title>
<path fill="none" stroke="red" d="M176.24,-360.05C183.68,-351.16 193.92,-340.11 203.66,-330.41"/>
<polygon fill="red" stroke="red" points="206.23,-332.79 210.96,-323.31 201.35,-327.77 206.23,-332.79"/>
</g>
<!-- useNotificationsStore -->
<g id="node6" class="node">
<title>useNotificationsStore</title>
<ellipse fill="none" stroke="red" cx="111.14" cy="-90" rx="111.28" ry="18"/>
<text text-anchor="middle" x="111.14" y="-86.3" font-family="Times,serif" font-size="14.00">useNotificationsStore</text>
</g>
<!-- useAuthStore&#45;&gt;useNotificationsStore -->
<g id="edge9" class="edge">
<title>useAuthStore&#45;&gt;useNotificationsStore</title>
<path fill="none" stroke="red" d="M151.73,-360.03C146.77,-349.74 142.17,-336.26 139.14,-324 121.01,-250.69 109.8,-162.12 108.31,-118.3"/>
<polygon fill="red" stroke="red" points="111.81,-118.1 108.15,-108.15 104.81,-118.21 111.81,-118.1"/>
</g>
<!-- useUserStore&#45;&gt;useAdminStore -->
<g id="edge8" class="edge">
<title>useUserStore&#45;&gt;useAdminStore</title>
<path fill="none" stroke="red" d="M239.96,-323.92C247.25,-341.97 256.02,-371.3 249.14,-396 246.47,-405.58 241.55,-415.16 236.36,-423.49"/>
<polygon fill="red" stroke="red" points="233.34,-421.71 230.7,-431.97 239.16,-425.59 233.34,-421.71"/>
</g>
<!-- useUserStore&#45;&gt;useAuthStore -->
<g id="edge10" class="edge">
<title>useUserStore&#45;&gt;useAuthStore</title>
<path fill="none" stroke="red" d="M222.03,-323.96C214.65,-332.78 204.53,-343.71 194.87,-353.35"/>
<polygon fill="red" stroke="red" points="192.34,-350.92 187.62,-360.41 197.22,-355.94 192.34,-350.92"/>
</g>
<!-- usePostsStore -->
<g id="node4" class="node">
<title>usePostsStore</title>
<ellipse fill="none" stroke="red" cx="232.14" cy="-234" rx="77.19" ry="18"/>
<text text-anchor="middle" x="232.14" y="-230.3" font-family="Times,serif" font-size="14.00">usePostsStore</text>
</g>
<!-- useUserStore&#45;&gt;usePostsStore -->
<g id="edge3" class="edge">
<title>useUserStore&#45;&gt;usePostsStore</title>
<path fill="none" stroke="red" d="M226.26,-288.05C225.44,-280.35 225.2,-271.03 225.53,-262.36"/>
<polygon fill="red" stroke="red" points="229.03,-262.49 226.23,-252.28 222.05,-262.01 229.03,-262.49"/>
</g>
<!-- usePostsStore&#45;&gt;useUserStore -->
<g id="edge13" class="edge">
<title>usePostsStore&#45;&gt;useUserStore</title>
<path fill="none" stroke="red" d="M238.05,-252.28C238.85,-260.03 239.08,-269.36 238.73,-278.01"/>
<polygon fill="red" stroke="red" points="235.23,-277.83 238.02,-288.05 242.22,-278.33 235.23,-277.83"/>
</g>
<!-- useCommentsStore -->
<g id="node5" class="node">
<title>useCommentsStore</title>
<ellipse fill="none" stroke="red" cx="288.14" cy="-162" rx="102.08" ry="18"/>
<text text-anchor="middle" x="288.14" y="-158.3" font-family="Times,serif" font-size="14.00">useCommentsStore</text>
</g>
<!-- usePostsStore&#45;&gt;useCommentsStore -->
<g id="edge4" class="edge">
<title>usePostsStore&#45;&gt;useCommentsStore</title>
<path fill="none" stroke="red" d="M239.82,-216.05C245.78,-207.46 254.07,-196.86 262.16,-187.4"/>
<polygon fill="red" stroke="red" points="264.87,-189.61 268.85,-179.79 259.61,-184.99 264.87,-189.61"/>
</g>
<!-- usePostsStore&#45;&gt;useNotificationsStore -->
<g id="edge7" class="edge">
<title>usePostsStore&#45;&gt;useNotificationsStore</title>
<path fill="none" stroke="red" d="M213.3,-216.3C202.31,-206.21 188.43,-192.85 177.14,-180 159.24,-159.64 141.05,-134.72 128.31,-116.43"/>
<polygon fill="red" stroke="red" points="131.08,-114.28 122.52,-108.04 125.31,-118.26 131.08,-114.28"/>
</g>
<!-- useCommentsStore&#45;&gt;usePostsStore -->
<g id="edge12" class="edge">
<title>useCommentsStore&#45;&gt;usePostsStore</title>
<path fill="none" stroke="red" d="M280.45,-179.96C274.45,-188.61 266.11,-199.28 257.97,-208.78"/>
<polygon fill="red" stroke="red" points="255.23,-206.59 251.25,-216.41 260.49,-211.22 255.23,-206.59"/>
</g>
<!-- useCommentsStore&#45;&gt;useNotificationsStore -->
<g id="edge5" class="edge">
<title>useCommentsStore&#45;&gt;useNotificationsStore</title>
<path fill="none" stroke="red" d="M248.42,-145.29C222.52,-135.05 188.53,-121.61 160.85,-110.66"/>
<polygon fill="red" stroke="red" points="161.93,-107.32 151.34,-106.9 159.35,-113.83 161.93,-107.32"/>
</g>
<!-- useAnalyticsStore -->
<g id="node8" class="node">
<title>useAnalyticsStore</title>
<ellipse fill="none" stroke="black" cx="376.14" cy="-90" rx="94.78" ry="18"/>
<text text-anchor="middle" x="376.14" y="-86.3" font-family="Times,serif" font-size="14.00">useAnalyticsStore</text>
</g>
<!-- useCommentsStore&#45;&gt;useAnalyticsStore -->
<g id="edge15" class="edge">
<title>useCommentsStore&#45;&gt;useAnalyticsStore</title>
<path fill="none" stroke="black" d="M309.44,-144.05C320.68,-135.11 334.65,-124.01 346.89,-114.27"/>
<polygon fill="black" stroke="black" points="349.39,-116.75 355.03,-107.79 345.03,-111.28 349.39,-116.75"/>
</g>
<!-- useNotificationsStore&#45;&gt;useAdminStore -->
<g id="edge6" class="edge">
<title>useNotificationsStore&#45;&gt;useAdminStore</title>
<path fill="none" stroke="red" d="M101.4,-108.32C87.64,-134.47 64.14,-186 64.14,-233 64.14,-307 64.14,-307 64.14,-307 64.14,-347.45 57.01,-365.12 83.14,-396 99.12,-414.88 122.74,-427.09 145.72,-434.95"/>
<polygon fill="red" stroke="red" points="144.92,-438.37 155.51,-438.06 147.04,-431.7 144.92,-438.37"/>
</g>
<!-- useNotificationsStore&#45;&gt;useAuthStore -->
<g id="edge11" class="edge">
<title>useNotificationsStore&#45;&gt;useAuthStore</title>
<path fill="none" stroke="red" d="M117.56,-108.15C125.95,-147 137.47,-244.48 157.14,-324 159.24,-332.49 162.09,-341.56 164.51,-349.76"/>
<polygon fill="red" stroke="red" points="161.19,-350.87 167.25,-359.56 167.93,-348.98 161.19,-350.87"/>
</g>
<!-- useSettingsStore -->
<g id="node9" class="node">
<title>useSettingsStore</title>
<ellipse fill="none" stroke="black" cx="111.14" cy="-18" rx="90.98" ry="18"/>
<text text-anchor="middle" x="111.14" y="-14.3" font-family="Times,serif" font-size="14.00">useSettingsStore</text>
</g>
<!-- useNotificationsStore&#45;&gt;useSettingsStore -->
<g id="edge17" class="edge">
<title>useNotificationsStore&#45;&gt;useSettingsStore</title>
<path fill="none" stroke="black" d="M111.14,-71.7C111.14,-63.98 111.14,-54.71 111.14,-46.11"/>
<polygon fill="black" stroke="black" points="114.64,-46.1 111.14,-36.1 107.64,-46.1 114.64,-46.1"/>
</g>
<!-- useLogsStore&#45;&gt;useAnalyticsStore -->
<g id="edge16" class="edge">
<title>useLogsStore&#45;&gt;useAnalyticsStore</title>
<path fill="none" stroke="black" d="M412.58,-287.78C412.94,-258 411.93,-195.15 399.14,-144 396.9,-135.05 393.3,-125.68 389.61,-117.36"/>
<polygon fill="black" stroke="black" points="392.71,-115.73 385.3,-108.16 386.37,-118.7 392.71,-115.73"/>
</g>
</g>
</svg>
